<mxfile host="app.diagrams.net" modified="2023-06-13T09:45:06.902Z" agent="Mozilla/5.0 (Windows NT 10.0; Win64; x64) AppleWebKit/537.36 (KHTML, like Gecko) Chrome/114.0.0.0 Safari/537.36" etag="8-YRTYA7Gwda_7axI0tO" version="21.3.7" type="github">
  <diagram name="第 1 页" id="-9Hubtrp--wDXN0rCE-y">
    <mxGraphModel dx="2514" dy="871" grid="1" gridSize="10" guides="1" tooltips="1" connect="1" arrows="1" fold="1" page="1" pageScale="1" pageWidth="827" pageHeight="1169" math="0" shadow="0">
      <root>
        <mxCell id="0" />
        <mxCell id="1" parent="0" />
        <mxCell id="ug66OBfkn0VU2JA4BtyB-3" value="" style="rounded=0;whiteSpace=wrap;html=1;fillColor=#E6EFFF;strokeColor=#6C8EBF;" vertex="1" parent="1">
          <mxGeometry y="9.5" width="280" height="560.5" as="geometry" />
        </mxCell>
        <mxCell id="ug66OBfkn0VU2JA4BtyB-4" value="数据加工层" style="text;html=1;strokeColor=none;fillColor=none;align=left;verticalAlign=middle;whiteSpace=wrap;rounded=0;" vertex="1" parent="1">
          <mxGeometry x="20" y="29.5" width="80" height="30" as="geometry" />
        </mxCell>
        <mxCell id="ug66OBfkn0VU2JA4BtyB-8" value="" style="rounded=0;whiteSpace=wrap;html=1;fillColor=#E6EFFF;strokeColor=#6C8EBF;" vertex="1" parent="1">
          <mxGeometry x="-300" y="650" width="1020" height="80" as="geometry" />
        </mxCell>
        <mxCell id="ug66OBfkn0VU2JA4BtyB-9" value="埋点日志" style="rounded=0;whiteSpace=wrap;html=1;strokeColor=#6C8EBF;" vertex="1" parent="1">
          <mxGeometry x="220" y="660" width="240" height="60" as="geometry" />
        </mxCell>
        <mxCell id="ug66OBfkn0VU2JA4BtyB-10" value="业务系统" style="rounded=0;whiteSpace=wrap;html=1;strokeColor=#6C8EBF;" vertex="1" parent="1">
          <mxGeometry x="470" y="660" width="240" height="60" as="geometry" />
        </mxCell>
        <mxCell id="ug66OBfkn0VU2JA4BtyB-11" value="" style="rounded=0;whiteSpace=wrap;html=1;fillColor=#E6EFFF;strokeColor=#6C8EBF;" vertex="1" parent="1">
          <mxGeometry x="320" y="10" width="200" height="560.5" as="geometry" />
        </mxCell>
        <mxCell id="ug66OBfkn0VU2JA4BtyB-12" value="数据服务层" style="text;html=1;strokeColor=none;fillColor=none;align=left;verticalAlign=middle;whiteSpace=wrap;rounded=0;" vertex="1" parent="1">
          <mxGeometry x="334" y="29.5" width="80" height="30" as="geometry" />
        </mxCell>
        <mxCell id="ug66OBfkn0VU2JA4BtyB-14" value="" style="rounded=0;whiteSpace=wrap;html=1;fillColor=#E6EFFF;strokeColor=#6C8EBF;" vertex="1" parent="1">
          <mxGeometry x="1080" y="40" width="200" height="690" as="geometry" />
        </mxCell>
        <mxCell id="ug66OBfkn0VU2JA4BtyB-15" value="平台工具" style="text;html=1;strokeColor=none;fillColor=none;align=center;verticalAlign=middle;whiteSpace=wrap;rounded=0;" vertex="1" parent="1">
          <mxGeometry x="1090" y="50" width="80" height="30" as="geometry" />
        </mxCell>
        <mxCell id="ug66OBfkn0VU2JA4BtyB-16" value="" style="rounded=0;whiteSpace=wrap;html=1;strokeColor=#6C8EBF;" vertex="1" parent="1">
          <mxGeometry x="1090" y="100" width="180" height="50" as="geometry" />
        </mxCell>
        <mxCell id="ug66OBfkn0VU2JA4BtyB-17" value="" style="rounded=0;whiteSpace=wrap;html=1;strokeColor=#6C8EBF;" vertex="1" parent="1">
          <mxGeometry x="1090" y="440" width="180" height="210" as="geometry" />
        </mxCell>
        <mxCell id="ug66OBfkn0VU2JA4BtyB-18" value="运维管理" style="rounded=0;whiteSpace=wrap;html=1;strokeColor=#6C8EBF;" vertex="1" parent="1">
          <mxGeometry x="1090" y="660" width="180" height="60" as="geometry" />
        </mxCell>
        <mxCell id="ug66OBfkn0VU2JA4BtyB-19" value="数据质量规则" style="rounded=0;whiteSpace=wrap;html=1;strokeColor=#6C8EBF;" vertex="1" parent="1">
          <mxGeometry x="1100" y="490" width="160" height="30" as="geometry" />
        </mxCell>
        <mxCell id="ug66OBfkn0VU2JA4BtyB-20" value="接口质量校验" style="rounded=0;whiteSpace=wrap;html=1;strokeColor=#6C8EBF;" vertex="1" parent="1">
          <mxGeometry x="1100" y="569.5" width="160" height="30" as="geometry" />
        </mxCell>
        <mxCell id="ug66OBfkn0VU2JA4BtyB-21" value="数据质量校验" style="rounded=0;whiteSpace=wrap;html=1;strokeColor=#6C8EBF;" vertex="1" parent="1">
          <mxGeometry x="1100" y="530" width="160" height="30" as="geometry" />
        </mxCell>
        <mxCell id="ug66OBfkn0VU2JA4BtyB-22" value="......" style="rounded=0;whiteSpace=wrap;html=1;strokeColor=#6C8EBF;" vertex="1" parent="1">
          <mxGeometry x="1100" y="610" width="160" height="30" as="geometry" />
        </mxCell>
        <mxCell id="ug66OBfkn0VU2JA4BtyB-23" value="数据质量管理" style="text;html=1;strokeColor=#FFFFFF;fillColor=none;align=center;verticalAlign=middle;whiteSpace=wrap;rounded=0;" vertex="1" parent="1">
          <mxGeometry x="1100" y="450" width="160" height="30" as="geometry" />
        </mxCell>
        <mxCell id="ug66OBfkn0VU2JA4BtyB-24" value="" style="rounded=0;whiteSpace=wrap;html=1;strokeColor=#6C8EBF;" vertex="1" parent="1">
          <mxGeometry x="1090" y="220" width="180" height="210" as="geometry" />
        </mxCell>
        <mxCell id="ug66OBfkn0VU2JA4BtyB-25" value="......" style="rounded=0;whiteSpace=wrap;html=1;strokeColor=#6C8EBF;" vertex="1" parent="1">
          <mxGeometry x="1100" y="390" width="160" height="30" as="geometry" />
        </mxCell>
        <mxCell id="ug66OBfkn0VU2JA4BtyB-26" value="数据存储周期" style="rounded=0;whiteSpace=wrap;html=1;strokeColor=#6C8EBF;" vertex="1" parent="1">
          <mxGeometry x="1100" y="350" width="160" height="30" as="geometry" />
        </mxCell>
        <mxCell id="ug66OBfkn0VU2JA4BtyB-27" value="指标算法分析" style="rounded=0;whiteSpace=wrap;html=1;strokeColor=#6C8EBF;" vertex="1" parent="1">
          <mxGeometry x="1100" y="310" width="160" height="30" as="geometry" />
        </mxCell>
        <mxCell id="ug66OBfkn0VU2JA4BtyB-28" value="数据血缘关系" style="rounded=0;whiteSpace=wrap;html=1;strokeColor=#6C8EBF;" vertex="1" parent="1">
          <mxGeometry x="1100" y="270" width="160" height="30" as="geometry" />
        </mxCell>
        <mxCell id="ug66OBfkn0VU2JA4BtyB-29" value="元数据管理" style="text;html=1;strokeColor=#FFFFFF;fillColor=none;align=center;verticalAlign=middle;whiteSpace=wrap;rounded=0;" vertex="1" parent="1">
          <mxGeometry x="1100" y="230" width="160" height="30" as="geometry" />
        </mxCell>
        <mxCell id="ug66OBfkn0VU2JA4BtyB-30" value="ETL调度" style="text;html=1;strokeColor=#FFFFFF;fillColor=none;align=center;verticalAlign=middle;whiteSpace=wrap;rounded=0;" vertex="1" parent="1">
          <mxGeometry x="1100" y="110" width="160" height="30" as="geometry" />
        </mxCell>
        <mxCell id="ug66OBfkn0VU2JA4BtyB-32" value="数据源层" style="text;html=1;strokeColor=none;fillColor=none;align=left;verticalAlign=middle;whiteSpace=wrap;rounded=0;" vertex="1" parent="1">
          <mxGeometry x="-220" y="675" width="60" height="30" as="geometry" />
        </mxCell>
        <mxCell id="ug66OBfkn0VU2JA4BtyB-33" value="" style="rounded=0;whiteSpace=wrap;html=1;fillColor=#E6EFFF;strokeColor=#6C8EBF;" vertex="1" parent="1">
          <mxGeometry x="560" y="10.5" width="200" height="560" as="geometry" />
        </mxCell>
        <mxCell id="ug66OBfkn0VU2JA4BtyB-34" value="数据应用层" style="text;html=1;strokeColor=none;fillColor=none;align=left;verticalAlign=middle;whiteSpace=wrap;rounded=0;" vertex="1" parent="1">
          <mxGeometry x="580" y="35" width="80" height="30" as="geometry" />
        </mxCell>
        <mxCell id="ug66OBfkn0VU2JA4BtyB-35" value="主题报表" style="rounded=0;whiteSpace=wrap;html=1;strokeColor=#6C8EBF;" vertex="1" parent="1">
          <mxGeometry x="960" y="110.5" width="80" height="30" as="geometry" />
        </mxCell>
        <mxCell id="ug66OBfkn0VU2JA4BtyB-36" value="自助取数" style="rounded=0;whiteSpace=wrap;html=1;strokeColor=#6C8EBF;" vertex="1" parent="1">
          <mxGeometry x="870" y="140.5" width="80" height="30" as="geometry" />
        </mxCell>
        <mxCell id="ug66OBfkn0VU2JA4BtyB-37" value="增值产品" style="rounded=0;whiteSpace=wrap;html=1;strokeColor=#6C8EBF;" vertex="1" parent="1">
          <mxGeometry x="827" y="65" width="80" height="30" as="geometry" />
        </mxCell>
        <mxCell id="ug66OBfkn0VU2JA4BtyB-38" value="数据分析" style="rounded=0;whiteSpace=wrap;html=1;strokeColor=#6C8EBF;" vertex="1" parent="1">
          <mxGeometry x="780" y="140.5" width="80" height="30" as="geometry" />
        </mxCell>
        <mxCell id="ug66OBfkn0VU2JA4BtyB-39" value="业务支撑" style="rounded=0;whiteSpace=wrap;html=1;strokeColor=#6C8EBF;" vertex="1" parent="1">
          <mxGeometry x="810" y="210" width="80" height="30" as="geometry" />
        </mxCell>
        <mxCell id="ug66OBfkn0VU2JA4BtyB-40" value="" style="rounded=0;whiteSpace=wrap;html=1;strokeColor=#6C8EBF;" vertex="1" parent="1">
          <mxGeometry x="1090" y="160" width="180" height="50" as="geometry" />
        </mxCell>
        <mxCell id="ug66OBfkn0VU2JA4BtyB-41" value="安全管理" style="text;html=1;strokeColor=#FFFFFF;fillColor=none;align=center;verticalAlign=middle;whiteSpace=wrap;rounded=0;" vertex="1" parent="1">
          <mxGeometry x="1100" y="170" width="160" height="30" as="geometry" />
        </mxCell>
        <mxCell id="ug66OBfkn0VU2JA4BtyB-42" value="数据抽取、数据转换、数据加载" style="rounded=0;whiteSpace=wrap;html=1;" vertex="1" parent="1">
          <mxGeometry x="-300" y="10" width="190" height="560" as="geometry" />
        </mxCell>
        <mxCell id="ug66OBfkn0VU2JA4BtyB-44" value="" style="endArrow=classic;html=1;rounded=0;" edge="1" parent="1">
          <mxGeometry width="50" height="50" relative="1" as="geometry">
            <mxPoint x="-260" y="690" as="sourcePoint" />
            <mxPoint x="-260" y="570" as="targetPoint" />
          </mxGeometry>
        </mxCell>
        <mxCell id="ug66OBfkn0VU2JA4BtyB-47" value="" style="endArrow=classic;html=1;rounded=0;entryX=0;entryY=0.5;entryDx=0;entryDy=0;" edge="1" parent="1" source="ug66OBfkn0VU2JA4BtyB-42" target="ug66OBfkn0VU2JA4BtyB-3">
          <mxGeometry width="50" height="50" relative="1" as="geometry">
            <mxPoint x="-100" y="289.57758620689674" as="sourcePoint" />
            <mxPoint x="-80" y="270" as="targetPoint" />
          </mxGeometry>
        </mxCell>
        <mxCell id="ug66OBfkn0VU2JA4BtyB-48" value="" style="shape=cylinder3;whiteSpace=wrap;html=1;boundedLbl=1;backgroundOutline=1;size=15;" vertex="1" parent="1">
          <mxGeometry x="20" y="190" width="230" height="350" as="geometry" />
        </mxCell>
        <mxCell id="ug66OBfkn0VU2JA4BtyB-49" value="数据仓库" style="text;html=1;strokeColor=none;fillColor=none;align=center;verticalAlign=middle;whiteSpace=wrap;rounded=0;" vertex="1" parent="1">
          <mxGeometry x="105" y="250" width="60" height="30" as="geometry" />
        </mxCell>
        <mxCell id="ug66OBfkn0VU2JA4BtyB-50" value="数据获取" style="text;html=1;strokeColor=none;fillColor=none;align=center;verticalAlign=middle;whiteSpace=wrap;rounded=0;" vertex="1" parent="1">
          <mxGeometry x="-280" y="29.5" width="60" height="30" as="geometry" />
        </mxCell>
        <mxCell id="ug66OBfkn0VU2JA4BtyB-51" value="结构化数据" style="rounded=0;whiteSpace=wrap;html=1;" vertex="1" parent="1">
          <mxGeometry x="40" y="460" width="90" height="60" as="geometry" />
        </mxCell>
        <mxCell id="ug66OBfkn0VU2JA4BtyB-52" value="非结构化数据" style="rounded=0;whiteSpace=wrap;html=1;" vertex="1" parent="1">
          <mxGeometry x="140" y="460" width="90" height="60" as="geometry" />
        </mxCell>
        <mxCell id="ug66OBfkn0VU2JA4BtyB-53" value="数据汇总" style="rounded=0;whiteSpace=wrap;html=1;" vertex="1" parent="1">
          <mxGeometry x="40" y="420" width="190" height="30" as="geometry" />
        </mxCell>
        <mxCell id="ug66OBfkn0VU2JA4BtyB-54" value="数据挖掘" style="rounded=0;whiteSpace=wrap;html=1;" vertex="1" parent="1">
          <mxGeometry x="40" y="340" width="190" height="30" as="geometry" />
        </mxCell>
        <mxCell id="ug66OBfkn0VU2JA4BtyB-55" value="数据统计" style="rounded=0;whiteSpace=wrap;html=1;" vertex="1" parent="1">
          <mxGeometry x="40" y="380" width="190" height="30" as="geometry" />
        </mxCell>
        <mxCell id="ug66OBfkn0VU2JA4BtyB-56" value="元数据" style="rounded=0;whiteSpace=wrap;html=1;" vertex="1" parent="1">
          <mxGeometry x="340" y="110.5" width="160" height="60" as="geometry" />
        </mxCell>
        <mxCell id="ug66OBfkn0VU2JA4BtyB-60" value="" style="rounded=0;whiteSpace=wrap;html=1;" vertex="1" parent="1">
          <mxGeometry x="340" y="200.5" width="160" height="330" as="geometry" />
        </mxCell>
        <mxCell id="ug66OBfkn0VU2JA4BtyB-57" value="数据封装" style="rounded=0;whiteSpace=wrap;html=1;" vertex="1" parent="1">
          <mxGeometry x="360" y="255.5" width="120" height="60" as="geometry" />
        </mxCell>
        <mxCell id="ug66OBfkn0VU2JA4BtyB-58" value="API服务" style="rounded=0;whiteSpace=wrap;html=1;" vertex="1" parent="1">
          <mxGeometry x="360" y="405.5" width="120" height="60" as="geometry" />
        </mxCell>
        <mxCell id="ug66OBfkn0VU2JA4BtyB-61" value="" style="endArrow=classic;html=1;rounded=0;" edge="1" parent="1" source="ug66OBfkn0VU2JA4BtyB-56" target="ug66OBfkn0VU2JA4BtyB-60">
          <mxGeometry width="50" height="50" relative="1" as="geometry">
            <mxPoint x="200" y="170.5" as="sourcePoint" />
            <mxPoint x="250" y="120.5" as="targetPoint" />
          </mxGeometry>
        </mxCell>
        <mxCell id="ug66OBfkn0VU2JA4BtyB-62" value="" style="endArrow=classic;html=1;rounded=0;exitX=1;exitY=0;exitDx=0;exitDy=95;exitPerimeter=0;" edge="1" parent="1" source="ug66OBfkn0VU2JA4BtyB-48" target="ug66OBfkn0VU2JA4BtyB-57">
          <mxGeometry width="50" height="50" relative="1" as="geometry">
            <mxPoint x="220" y="280" as="sourcePoint" />
            <mxPoint x="270" y="230" as="targetPoint" />
          </mxGeometry>
        </mxCell>
        <mxCell id="ug66OBfkn0VU2JA4BtyB-63" value="" style="endArrow=classic;html=1;rounded=0;exitX=0.996;exitY=0.706;exitDx=0;exitDy=0;exitPerimeter=0;" edge="1" parent="1" source="ug66OBfkn0VU2JA4BtyB-48" target="ug66OBfkn0VU2JA4BtyB-58">
          <mxGeometry width="50" height="50" relative="1" as="geometry">
            <mxPoint x="290" y="460" as="sourcePoint" />
            <mxPoint x="340" y="410" as="targetPoint" />
          </mxGeometry>
        </mxCell>
        <mxCell id="ug66OBfkn0VU2JA4BtyB-70" value="主题报表" style="rounded=0;whiteSpace=wrap;html=1;" vertex="1" parent="1">
          <mxGeometry x="580" y="110.5" width="160" height="60" as="geometry" />
        </mxCell>
        <mxCell id="ug66OBfkn0VU2JA4BtyB-71" value="自助取数" style="rounded=0;whiteSpace=wrap;html=1;" vertex="1" parent="1">
          <mxGeometry x="580" y="190" width="160" height="60" as="geometry" />
        </mxCell>
        <mxCell id="ug66OBfkn0VU2JA4BtyB-72" value="主题报表" style="rounded=0;whiteSpace=wrap;html=1;" vertex="1" parent="1">
          <mxGeometry x="580" y="270" width="160" height="60" as="geometry" />
        </mxCell>
        <mxCell id="ug66OBfkn0VU2JA4BtyB-73" value="主题报表" style="rounded=0;whiteSpace=wrap;html=1;" vertex="1" parent="1">
          <mxGeometry x="580" y="350" width="160" height="60" as="geometry" />
        </mxCell>
        <mxCell id="ug66OBfkn0VU2JA4BtyB-74" value="主题报表" style="rounded=0;whiteSpace=wrap;html=1;" vertex="1" parent="1">
          <mxGeometry x="580" y="430" width="160" height="60" as="geometry" />
        </mxCell>
        <mxCell id="ug66OBfkn0VU2JA4BtyB-75" value="" style="endArrow=classic;html=1;rounded=0;exitX=1;exitY=0.5;exitDx=0;exitDy=0;entryX=0.009;entryY=0.633;entryDx=0;entryDy=0;entryPerimeter=0;" edge="1" parent="1" source="ug66OBfkn0VU2JA4BtyB-60" target="ug66OBfkn0VU2JA4BtyB-33">
          <mxGeometry width="50" height="50" relative="1" as="geometry">
            <mxPoint x="520" y="310.5" as="sourcePoint" />
            <mxPoint x="570" y="260.5" as="targetPoint" />
          </mxGeometry>
        </mxCell>
      </root>
    </mxGraphModel>
  </diagram>
</mxfile>
